<svg width="34" height="34" viewBox="0 0 34 34" fill="none" xmlns="http://www.w3.org/2000/svg">
<g clip-path="url(#clip0_5_33)">
<path fill-rule="evenodd" clip-rule="evenodd" d="M16.9701 23.7821C12.3093 23.7821 7.96719 21.2725 5.65671 17.2689C5.57704 17.1295 5.57704 16.9503 5.65671 16.8108C7.96719 12.7675 12.3093 10.2578 16.9701 10.2578C21.611 10.2578 25.9332 12.7675 28.2835 16.8108C28.3632 16.9503 28.3632 17.1295 28.2835 17.2689C25.9731 21.2725 21.6309 23.7821 16.9701 23.7821ZM6.65261 17.0299C8.82367 20.6152 12.7475 22.8261 16.9701 22.8261C21.1927 22.8261 25.1166 20.6152 27.2876 17.0299C25.1166 13.4447 21.1728 11.194 16.9701 11.194C12.7674 11.194 8.82367 13.4447 6.65261 17.0299Z" fill="black"/>
<path fill-rule="evenodd" clip-rule="evenodd" d="M8.06678 8.54483H4.85999C4.58114 8.54483 4.36204 8.32573 4.36204 8.0668C4.36204 7.78795 4.58114 7.56885 4.85999 7.56885H8.06678C8.32572 7.56885 8.54482 7.78795 8.54482 8.0668C8.54482 8.32573 8.3058 8.54483 8.06678 8.54483Z" fill="black"/>
<path fill-rule="evenodd" clip-rule="evenodd" d="M29.0803 8.54483H25.9133C25.6344 8.54483 25.4153 8.32573 25.4153 8.0668C25.4153 7.78795 25.6344 7.56885 25.9133 7.56885H29.0803C29.3591 7.56885 29.5782 7.78795 29.5782 8.0668C29.5782 8.32573 29.3591 8.54483 29.0803 8.54483Z" fill="black"/>
<path fill-rule="evenodd" clip-rule="evenodd" d="M29.0803 26.4113H25.9133C25.6344 26.4113 25.4153 26.1922 25.4153 25.9134C25.4153 25.6345 25.6344 25.4154 25.9133 25.4154H29.0803C29.3591 25.4154 29.5782 25.6345 29.5782 25.9134C29.5782 26.1922 29.3591 26.4113 29.0803 26.4113Z" fill="black"/>
<path fill-rule="evenodd" clip-rule="evenodd" d="M8.06678 26.4113H4.85999C4.58114 26.4113 4.36204 26.1922 4.36204 25.9134C4.36204 25.6345 4.58114 25.4154 4.85999 25.4154H8.06678C8.32572 25.4154 8.54482 25.6345 8.54482 25.9134C8.54482 26.1922 8.3058 26.4113 8.06678 26.4113Z" fill="black"/>
<path fill-rule="evenodd" clip-rule="evenodd" d="M3.24663 10.1781C2.09139 10.1781 1.15524 9.24197 1.15524 8.08673C1.15524 6.9514 2.09139 6.01526 3.24663 6.01526C4.38196 6.01526 5.3181 6.9514 5.3181 8.08673C5.3181 9.24197 4.42179 10.1781 3.24663 10.1781ZM3.24663 6.97132C2.62917 6.97132 2.13122 7.46927 2.13122 8.08673C2.13122 8.7241 2.62917 9.22205 3.24663 9.22205C3.86409 9.22205 4.36204 8.7241 4.36204 8.08673C4.36204 7.46927 3.86409 6.97132 3.24663 6.97132Z" fill="black"/>
<path fill-rule="evenodd" clip-rule="evenodd" d="M30.6737 10.1781C29.5185 10.1781 28.5823 9.24197 28.5823 8.08673C28.5823 6.9514 29.5185 6.01526 30.6737 6.01526C31.8489 6.01526 32.785 6.9514 32.785 8.08673C32.785 9.24197 31.8489 10.1781 30.6737 10.1781ZM30.6737 6.97132C30.0562 6.97132 29.5583 7.46927 29.5583 8.08673C29.5583 8.7241 30.0562 9.22205 30.6737 9.22205C31.3111 9.22205 31.809 8.7241 31.809 8.08673C31.809 7.46927 31.3111 6.97132 30.6737 6.97132Z" fill="black"/>
<path fill-rule="evenodd" clip-rule="evenodd" d="M30.6737 28.0246C29.5185 28.0246 28.5823 27.0884 28.5823 25.9332C28.5823 24.7779 29.5185 23.8418 30.6737 23.8418C31.809 23.8418 32.785 24.7979 32.785 25.9332C32.785 27.0884 31.8489 28.0246 30.6737 28.0246ZM30.6737 24.7979C30.0562 24.7979 29.5583 25.2958 29.5583 25.9332C29.5583 26.5706 30.0562 27.0685 30.6737 27.0685C31.3111 27.0685 31.809 26.5706 31.809 25.9332C31.809 25.3356 31.3111 24.7979 30.6737 24.7979Z" fill="black"/>
<path fill-rule="evenodd" clip-rule="evenodd" d="M3.24663 28.0246C2.09139 28.0246 1.15524 27.0884 1.15524 25.9332C1.15524 24.7779 2.09139 23.8418 3.24663 23.8418C4.38196 23.8418 5.3181 24.7779 5.3181 25.9332C5.3181 27.0884 4.42179 28.0246 3.24663 28.0246ZM3.24663 24.7979C2.62917 24.7979 2.13122 25.2958 2.13122 25.9332C2.13122 26.5706 2.62917 27.0685 3.24663 27.0685C3.86409 27.0685 4.36204 26.5706 4.36204 25.9332C4.36204 25.3356 3.86409 24.7979 3.24663 24.7979Z" fill="black"/>
<path fill-rule="evenodd" clip-rule="evenodd" d="M16.9701 22.4077C13.9824 22.4077 11.5923 19.9777 11.5923 17.0299C11.5923 14.0422 14.0223 11.6122 16.9701 11.6122C19.9578 11.6122 22.3679 14.0422 22.3679 17.0299C22.3679 19.9777 19.9578 22.4077 16.9701 22.4077ZM16.9701 12.5882C14.5401 12.5882 12.5483 14.56 12.5483 17.0299C12.5483 19.4599 14.5401 21.4317 16.9701 21.4317C19.42 21.4317 21.4118 19.4599 21.4118 17.0299C21.4118 14.56 19.42 12.5882 16.9701 12.5882Z" fill="black"/>
<path fill-rule="evenodd" clip-rule="evenodd" d="M16.9701 14.4007C16.6913 14.4007 16.4722 14.1816 16.4722 13.9028V12.0902C16.4722 11.8114 16.6913 11.5923 16.9701 11.5923C17.249 11.5923 17.4681 11.8114 17.4681 12.0902V13.9028C17.4681 14.1816 17.249 14.4007 16.9701 14.4007Z" fill="black"/>
<path fill-rule="evenodd" clip-rule="evenodd" d="M19.1412 15.317C19.0416 15.317 18.9022 15.2572 18.8225 15.1776C18.6233 14.9784 18.6233 14.6796 18.8225 14.4804L20.1172 13.1858C20.3163 12.9866 20.6151 12.9866 20.7944 13.1858C20.9936 13.3849 20.9936 13.6837 20.7944 13.8829L19.4997 15.1776C19.4001 15.2572 19.2806 15.317 19.1412 15.317Z" fill="black"/>
<path fill-rule="evenodd" clip-rule="evenodd" d="M21.9098 17.488H20.0773C19.8184 17.488 19.5993 17.2689 19.5993 16.99C19.5993 16.7112 19.8184 16.4921 20.0773 16.4921H21.9098C22.1886 16.4921 22.4077 16.7112 22.4077 16.99C22.4077 17.2689 22.1488 17.488 21.9098 17.488Z" fill="black"/>
<path fill-rule="evenodd" clip-rule="evenodd" d="M20.4359 20.9736C20.3363 20.9736 20.1968 20.9138 20.1172 20.8342L18.8225 19.5395C18.6233 19.3403 18.6233 19.0416 18.8225 18.8424C19.0018 18.6432 19.3204 18.6432 19.4997 18.8424L20.7944 20.137C20.9936 20.3362 20.9936 20.635 20.7944 20.8342C20.6948 20.9338 20.5554 20.9736 20.4359 20.9736Z" fill="black"/>
<path fill-rule="evenodd" clip-rule="evenodd" d="M16.9701 22.4077C16.6913 22.4077 16.4722 22.1886 16.4722 21.9097V20.0773C16.4722 19.8183 16.6913 19.5992 16.9701 19.5992C17.249 19.5992 17.4681 19.8183 17.4681 20.0773V21.9097C17.4681 22.1886 17.249 22.4077 16.9701 22.4077Z" fill="black"/>
<path fill-rule="evenodd" clip-rule="evenodd" d="M13.4845 20.9736C13.3849 20.9736 13.2455 20.9138 13.1658 20.8342C12.9666 20.635 12.9666 20.3362 13.1658 20.137L14.4605 18.8424C14.6596 18.6432 14.9584 18.6432 15.1576 18.8424C15.3368 19.0416 15.3368 19.3403 15.1576 19.5395L13.8231 20.8342C13.7434 20.9338 13.6239 20.9736 13.4845 20.9736Z" fill="black"/>
<path fill-rule="evenodd" clip-rule="evenodd" d="M13.8828 17.488H12.0504C11.7914 17.488 11.5524 17.2689 11.5524 16.99C11.5524 16.7112 11.7914 16.4921 12.0504 16.4921H13.8828C14.1617 16.4921 14.3808 16.7112 14.3808 16.99C14.3808 17.2689 14.1219 17.488 13.8828 17.488Z" fill="black"/>
<path fill-rule="evenodd" clip-rule="evenodd" d="M14.7991 15.317C14.6796 15.317 14.5401 15.2572 14.4605 15.1776L13.1658 13.8829C12.9666 13.6837 12.9666 13.3849 13.1658 13.1858C13.345 12.9866 13.6637 12.9866 13.843 13.1858L15.1576 14.4804C15.3368 14.6796 15.3368 14.9784 15.1576 15.1776C15.0381 15.2572 14.8987 15.317 14.7991 15.317Z" fill="black"/>
<path fill-rule="evenodd" clip-rule="evenodd" d="M16.9701 19.1213C15.8149 19.1213 14.8787 18.1851 14.8787 17.0299C14.8787 15.8746 15.8149 14.9186 16.9701 14.9186C18.1254 14.9186 19.0615 15.8746 19.0615 17.0299C19.0615 18.1851 18.1254 19.1213 16.9701 19.1213ZM16.9701 15.8946C16.3327 15.8946 15.8348 16.3925 15.8348 17.0299C15.8348 17.6673 16.3327 18.1652 16.9701 18.1652C17.6075 18.1652 18.1054 17.6673 18.1054 17.0299C18.1054 16.3925 17.6075 15.8946 16.9701 15.8946Z" fill="black"/>
<path fill-rule="evenodd" clip-rule="evenodd" d="M25.9133 26.4112C25.7938 26.4112 25.6544 26.3514 25.5747 26.2718L21.8301 22.5073C21.6309 22.328 21.6309 22.0093 21.8301 21.8301C22.0094 21.6309 22.3281 21.6309 22.5073 21.8301L26.232 25.6145C26.4312 25.7937 26.4312 26.0925 26.232 26.2917C26.1523 26.3714 26.0129 26.4112 25.9133 26.4112ZM11.8114 12.3093C11.6919 12.3093 11.5524 12.2495 11.4728 12.1698L7.68834 8.42525C7.50908 8.22607 7.50908 7.9273 7.68834 7.72812C7.88752 7.52894 8.18629 7.52894 8.38547 7.72812L12.15 11.4727C12.3292 11.6719 12.3292 11.9707 12.15 12.1698C12.0504 12.2694 11.911 12.3093 11.8114 12.3093Z" fill="black"/>
<path fill-rule="evenodd" clip-rule="evenodd" d="M8.06678 26.4112C7.94728 26.4112 7.80785 26.3514 7.72818 26.2718C7.529 26.0726 7.529 25.7738 7.72818 25.5746L11.4728 21.85C11.6719 21.6508 11.9707 21.6508 12.1699 21.85C12.3691 22.0492 12.3691 22.3479 12.1699 22.5471L8.38547 26.2718C8.3058 26.3714 8.16637 26.4112 8.06678 26.4112ZM22.1488 12.3093C22.0492 12.3093 21.9098 12.2495 21.8301 12.1698C21.6309 11.9707 21.6309 11.6719 21.8301 11.4727L25.5747 7.72812C25.7739 7.52894 26.0726 7.52894 26.2718 7.72812C26.4511 7.9273 26.4511 8.22607 26.2718 8.42525L22.4874 12.1698C22.4077 12.2694 22.2683 12.3093 22.1488 12.3093Z" fill="black"/>
<path fill-rule="evenodd" clip-rule="evenodd" d="M0.49795 5.8957C0.219098 5.8957 4.76837e-07 5.6766 4.76837e-07 5.41767V0.517847C4.76837e-07 0.238995 0.219098 0.0198975 0.49795 0.0198975H5.93556C6.21441 0.0198975 6.43351 0.238995 6.43351 0.517847C6.43351 0.796699 6.21441 1.0158 5.93556 1.0158H0.956064V5.43759C0.956064 5.6766 0.736966 5.8957 0.49795 5.8957Z" fill="black"/>
<path fill-rule="evenodd" clip-rule="evenodd" d="M33.4622 5.89572C33.1834 5.89572 32.9643 5.67663 32.9643 5.41769V0.995899H28.5624C28.2835 0.995899 28.0644 0.776801 28.0644 0.49795C28.0644 0.219098 28.2835 0 28.5624 0H33.4423C33.7211 0 33.9402 0.219098 33.9402 0.49795V5.37786C33.9402 5.67663 33.7211 5.89572 33.4622 5.89572Z" fill="black"/>
<path fill-rule="evenodd" clip-rule="evenodd" d="M33.4622 34H28.5823C28.3035 34 28.0844 33.7809 28.0844 33.502C28.0844 33.2232 28.3035 33.0041 28.5823 33.0041H33.0041V28.5823C33.0041 28.3034 33.2232 28.0844 33.502 28.0844C33.7809 28.0844 34 28.3034 34 28.5823V33.4622C33.9402 33.7809 33.7211 34 33.4622 34Z" fill="black"/>
<path fill-rule="evenodd" clip-rule="evenodd" d="M5.37786 34H0.49795C0.219098 34 4.76837e-07 33.7809 4.76837e-07 33.502V28.6221C4.76837e-07 28.3432 0.219098 28.1241 0.49795 28.1241C0.776802 28.1241 0.9959 28.3432 0.9959 28.6221V33.024H5.41769C5.67663 33.024 5.89572 33.2431 5.89572 33.5219C5.89572 33.8008 5.63679 34 5.37786 34Z" fill="black"/>
<path fill-rule="evenodd" clip-rule="evenodd" d="M16.9701 26.4511C16.6913 26.4511 16.4722 26.232 16.4722 25.9731V23.2841C16.4722 23.0053 16.6913 22.7862 16.9701 22.7862C17.249 22.7862 17.4681 23.0053 17.4681 23.2841V25.9731C17.4681 26.232 17.249 26.4511 16.9701 26.4511ZM16.9701 11.1939C16.6913 11.1939 16.4722 10.9748 16.4722 10.696V8.0668C16.4722 7.78795 16.6913 7.56885 16.9701 7.56885C17.249 7.56885 17.4681 7.78795 17.4681 8.0668V10.696C17.4681 10.9748 17.249 11.1939 16.9701 11.1939Z" fill="black"/>
<path fill-rule="evenodd" clip-rule="evenodd" d="M16.9701 29.6977C15.8348 29.6977 14.8987 28.7416 14.8987 27.5864C14.8987 26.4311 15.8348 25.495 16.9701 25.495C18.1254 25.495 19.0615 26.4311 19.0615 27.5864C19.0615 28.7416 18.1254 29.6977 16.9701 29.6977ZM16.9701 26.4511C16.3527 26.4511 15.8746 26.949 15.8746 27.5864C15.8746 28.2038 16.3527 28.7217 16.9701 28.7217C17.6075 28.7217 18.1054 28.2238 18.1054 27.5864C18.1054 26.949 17.6075 26.4511 16.9701 26.4511Z" fill="black"/>
<path fill-rule="evenodd" clip-rule="evenodd" d="M16.9701 8.54484C15.8348 8.54484 14.8987 7.60869 14.8987 6.45345C14.8987 5.29821 15.8348 4.36206 16.9701 4.36206C18.1254 4.36206 19.0615 5.29821 19.0615 6.45345C19.0615 7.60869 18.1254 8.54484 16.9701 8.54484ZM16.9701 5.31812C16.3527 5.31812 15.8746 5.81607 15.8746 6.45345C15.8746 7.07091 16.3527 7.58877 16.9701 7.58877C17.6075 7.58877 18.1054 7.09082 18.1054 6.45345C18.1054 5.81607 17.6075 5.31812 16.9701 5.31812Z" fill="black"/>
</g>
<defs>
<clipPath id="clip0_5_33">
<rect width="34" height="34" fill="white"/>
</clipPath>
</defs>
</svg>
