<svg width="34" height="34" viewBox="0 0 34 34" fill="none" xmlns="http://www.w3.org/2000/svg">
<path d="M17 17C17 16.2176 17.6342 15.5834 18.4167 15.5834H26.9167C27.6991 15.5834 28.3333 16.2176 28.3333 17V26.9167C28.3333 27.6991 27.6991 28.3334 26.9167 28.3334H18.4167C17.6342 28.3334 17 27.6991 17 26.9167V17Z" stroke="black" stroke-width="2" stroke-linecap="round"/>
<path d="M5.66667 7.08329C5.66667 6.3009 6.30094 5.66663 7.08333 5.66663H11.3333C12.1157 5.66663 12.75 6.3009 12.75 7.08329V26.9166C12.75 27.6991 12.1157 28.3333 11.3333 28.3333H7.08333C6.30094 28.3333 5.66667 27.6991 5.66667 26.9166V7.08329Z" stroke="black" stroke-width="2" stroke-linecap="round"/>
<path d="M17 7.08329C17 6.3009 17.6342 5.66663 18.4167 5.66663H26.9167C27.6991 5.66663 28.3333 6.3009 28.3333 7.08329V9.91663C28.3333 10.699 27.6991 11.3333 26.9167 11.3333H18.4167C17.6342 11.3333 17 10.699 17 9.91663V7.08329Z" stroke="black" stroke-width="2" stroke-linecap="round"/>
</svg>
